<svg width="447" height="404" fill="none" xmlns="http://www.w3.org/2000/svg"><g clip-path="url(#a)"><g clip-path="url(#b)"><path d="M411.636 125.313c7.161-7.523 11.636-17.742 11.636-28.97 0-23.132-18.685-41.884-41.734-41.884-6.378 0-12.532 1.46-17.902 4.043-2.797-20.324-20.252-36.045-41.287-36.045-11.301 0-21.482 4.492-28.979 11.79C289.79 14.823 272.783 0 252.195 0c-11.972 0-22.825 5.165-30.433 13.25C214.265 5.165 203.412 0 191.44 0c-20.475 0-37.482 14.822-41.063 34.472-7.496-7.298-17.678-11.79-28.979-11.79-21.035 0-38.489 15.72-41.286 36.044-5.483-2.582-11.525-4.042-17.902-4.042-23.05 0-41.735 18.752-41.735 41.883 0 11.229 4.476 21.447 11.637 28.97C13.762 129.917 0 146.535 0 166.41c0 23.131 18.685 41.883 41.734 41.883 6.042 0 11.86-1.347 17.007-3.705 54.825 44.466 137.175 49.182 163.245 61.309 26.181-12.015 108.867-16.506 163.692-61.309 5.035 2.133 10.629 3.369 16.447 3.369 23.049 0 41.734-18.752 41.734-41.884 0-19.762-13.762-36.381-32.223-40.76z" fill="#FFFF61"/></g></g><g clip-path="url(#c)"><path d="M32.224 277.718c-7.161 7.524-11.637 17.742-11.637 28.97 0 23.132 18.686 41.884 41.734 41.884 6.378 0 12.532-1.46 17.903-4.043 2.797 20.324 20.251 36.045 41.286 36.045 11.301 0 21.483-4.492 28.979-11.79 3.581 19.425 20.588 34.247 41.175 34.247 11.972 0 22.825-5.165 30.433-13.25 7.497 8.085 18.35 13.25 30.322 13.25 20.476 0 37.483-14.822 41.063-34.472 7.496 7.299 17.678 11.79 28.979 11.79 21.035 0 38.489-15.72 41.287-36.044 5.482 2.582 11.524 4.042 17.902 4.042 23.049 0 41.734-18.752 41.734-41.883 0-11.229-4.476-21.447-11.636-28.97 18.349-4.379 32.111-20.998 32.111-40.873 0-23.131-18.685-41.883-41.734-41.883a40.942 40.942 0 0 0-17.007 3.705c-54.825-44.466-137.174-49.182-163.244-61.309-26.182 12.015-108.867 16.507-163.692 61.309-5.035-2.133-10.63-3.368-16.448-3.368C18.685 195.075 0 213.827 0 236.958c0 19.763 13.762 36.381 32.224 40.76z" fill="#FFFF61"/></g><g clip-path="url(#d)"><path d="M70.28 225.28c19.814 0 35.877-16.058 35.877-35.867 0-19.808-16.063-35.866-35.877-35.866-19.815 0-35.878 16.058-35.878 35.866 0 19.809 16.063 35.867 35.877 35.867zm32.456 127.016c41.309-7.047 70.923-35.452 66.145-63.444-4.777-27.992-42.138-44.971-83.448-37.924-41.309 7.047-70.923 35.451-66.145 63.443 4.778 27.992 42.139 44.971 83.448 37.925z" fill="#FFADC4"/><path d="M187.197 245.119c5.08-5.317 8.255-12.538 8.255-20.473 0-16.346-13.255-29.597-29.606-29.597-4.525 0-8.89 1.031-12.7 2.856-1.985-14.362-14.367-25.471-29.289-25.471-8.017 0-15.24 3.174-20.558 8.332-2.461-13.807-14.605-24.282-29.13-24.282-8.256 0-15.717 3.412-21.114 8.888v178.856c18.89-8.412 77.151-11.665 115.807-43.167a30.044 30.044 0 0 0 11.668 2.38c16.351 0 29.606-13.251 29.606-29.597-.079-13.966-9.842-25.71-22.939-28.725z" fill="#FFADC4"/><path d="M62.74 272.336c16.35 0 29.606-13.251 29.606-29.598 0-16.346-13.255-29.597-29.607-29.597-16.35 0-29.606 13.251-29.606 29.597 0 16.347 13.255 29.598 29.606 29.598z" fill="#fff"/><path d="M67.502 226.867c-6.508 0-12.144 3.333-15.398 8.411L70.28 246.07H49.246c.476 9.681 8.493 17.298 18.256 17.298 6.906 0 12.859-3.808 15.954-9.522 1.27-2.38 2.064-4.999 2.223-7.855 0-.318.08-.635.08-.953 0-9.998-8.176-18.171-18.257-18.171z" fill="#000"/><path d="M146.954 272.336c16.352 0 29.607-13.251 29.607-29.598 0-16.346-13.255-29.597-29.607-29.597-16.351 0-29.606 13.251-29.606 29.597 0 16.347 13.255 29.598 29.606 29.598z" fill="#fff"/><path d="M151.639 226.867c-6.509 0-12.144 3.333-15.399 8.411l18.177 10.792h-21.034c.476 9.681 8.493 17.298 18.256 17.298 6.905 0 12.859-3.808 15.954-9.522 1.27-2.38 2.064-4.999 2.223-7.855 0-.318.079-.635.079-.953.079-9.998-8.096-18.171-18.256-18.171z" fill="#000"/><path fill-rule="evenodd" clip-rule="evenodd" d="M131.955 284.948c0 11.03-10.795 32.454-24.13 32.454-13.335 0-24.13-21.424-24.13-32.454 0-11.03 10.795-7.459 24.13-7.459 13.335 0 24.13-3.571 24.13 7.459z" fill="#ED1C24"/><path d="M89.17 289.633a6.826 6.826 0 1 0-6.826-6.824 6.826 6.826 0 0 0 6.826 6.824z" fill="#fff"/><path d="M101.475 289.633a6.825 6.825 0 1 0 0-13.649 6.826 6.826 0 1 0 0 13.649z" fill="#fff"/><path d="M114.096 289.633a6.825 6.825 0 1 0-6.826-6.824 6.825 6.825 0 0 0 6.826 6.824z" fill="#fff"/><path d="M126.24 289.633a6.825 6.825 0 1 0-6.826-6.824 6.825 6.825 0 0 0 6.826 6.824z" fill="#fff"/><path clip-rule="evenodd" d="M131.955 284.948c0 11.03-10.795 32.454-24.13 32.454-13.335 0-24.13-21.424-24.13-32.454 0-11.03 10.795-7.459 24.13-7.459 13.335 0 24.13-3.571 24.13 7.459z" stroke="#000" stroke-width="6.281" stroke-miterlimit="10" stroke-linecap="round" stroke-linejoin="round"/></g><path fill-rule="evenodd" clip-rule="evenodd" d="m191.57 284.553 24.229-24.678c6.798-7.001 8.629-17.589 4.184-26.252-23.009-45.68-15.165-103.173 23.706-140.977 47.412-46.03 122.016-45.242 168.47 1.663 46.279 46.729 46.54 122.337.261 169.417-1.046 1.05-2.092 2.1-3.225 3.15-.261.262-.523.437-.697.7-1.046.963-2.004 1.838-3.05 2.8-.349.263-.698.525-.959.875-.697.613-1.482 1.225-2.179 1.838-.871.7-1.656 1.313-2.527 2.013-.349.262-.785.612-1.133.875-78.527 58.806-206.382 8.926-207.08 8.576z" fill="#0957C7"/><path d="M274.694 130.075h-3.685v11.976h-13.4v-11.976h-3.684v29.312h3.684v-13.819h13.4v13.819h3.685v-29.312zm5.809 18.76c0 1.423.21 2.805.67 4.103a10.246 10.246 0 0 0 2.01 3.476c.879 1.005 1.926 1.842 3.182 2.428 1.257.587 2.68.88 4.272.88 1.591 0 2.973-.293 4.229-.88 1.256-.586 2.303-1.423 3.182-2.428a10.213 10.213 0 0 0 2.01-3.476c.461-1.298.712-2.68.712-4.103 0-1.424-.251-2.764-.712-4.104a10.627 10.627 0 0 0-2.01-3.476 9.51 9.51 0 0 0-3.182-2.386c-1.256-.587-2.638-.922-4.229-.922-1.592 0-3.015.335-4.272.922a9.51 9.51 0 0 0-3.182 2.386 10.663 10.663 0 0 0-2.01 3.476c-.46 1.34-.67 2.68-.67 4.104zm3.601 0c0-.964.126-1.927.419-2.848.251-.921.67-1.717 1.214-2.47a5.867 5.867 0 0 1 2.052-1.717c.796-.419 1.759-.67 2.848-.67 1.088 0 2.01.251 2.847.67a6.1 6.1 0 0 1 2.01 1.717 8.59 8.59 0 0 1 1.256 2.47c.251.921.419 1.884.419 2.848 0 1.005-.168 1.926-.419 2.847-.293.921-.712 1.759-1.256 2.471a5.774 5.774 0 0 1-2.01 1.758c-.837.419-1.759.628-2.847.628-1.089 0-2.052-.209-2.848-.628a5.57 5.57 0 0 1-2.052-1.758 7.18 7.18 0 0 1-1.214-2.471c-.293-.921-.419-1.842-.419-2.847zm47.74-10.553h-3.684l-4.313 16.206-4.146-16.206h-3.517l-4.146 16.206-4.313-16.206h-3.685l6.407 21.105h3.35l4.145-16.038 4.146 16.038h3.35l6.406-21.105zm18.712 15.033c0-1.172.461-2.094 1.424-2.764.963-.628 2.345-.963 4.187-.963h3.769v.503c0 1.214-.21 2.219-.545 3.057-.377.837-.837 1.465-1.382 1.968-.586.502-1.214.879-1.926 1.088a5.996 5.996 0 0 1-2.052.335c-1.13 0-2.009-.251-2.596-.837-.586-.586-.879-1.382-.879-2.387zm12.897 6.072v-13.484c0-1.381-.209-2.596-.628-3.601-.419-1.005-.963-1.8-1.675-2.47-.754-.628-1.591-1.089-2.596-1.424a11.32 11.32 0 0 0-3.224-.461c-2.01 0-3.685.545-5.025 1.55-1.34 1.047-2.178 2.47-2.471 4.229l3.099.712c.209-1.047.712-1.843 1.549-2.429.796-.586 1.759-.879 2.848-.879 1.256 0 2.344.335 3.266.963.879.67 1.34 1.801 1.34 3.392v.921h-3.434c-1.466 0-2.764.167-3.936.461-1.173.293-2.178.711-3.015 1.298-.837.586-1.507 1.34-1.926 2.177-.461.879-.67 1.884-.67 2.973 0 1.173.167 2.136.502 2.931a5.302 5.302 0 0 0 1.424 1.968c.586.545 1.298.921 2.094 1.173.753.251 1.591.335 2.512.335 1.591 0 2.889-.293 3.978-.922a7.237 7.237 0 0 0 2.638-2.386l.586 2.973h2.764zm17.838-17.671.712-3.14c-.335-.168-.754-.294-1.256-.419a6.685 6.685 0 0 0-1.633-.21c-.586 0-1.215.126-1.801.294a9.095 9.095 0 0 0-1.717.795 7.103 7.103 0 0 0-1.507 1.256 6.015 6.015 0 0 0-1.173 1.592v-3.602h-3.517v21.105h3.517v-7.998c0-1.675.168-3.183.503-4.481.335-1.256.796-2.345 1.382-3.224.544-.837 1.172-1.507 1.884-1.926a3.96 3.96 0 0 1 2.136-.628c.837 0 1.675.209 2.47.586zm22.091 7.872v-1.633c0-1.298-.21-2.554-.628-3.768-.419-1.173-1.005-2.262-1.801-3.183-.837-.921-1.842-1.633-3.015-2.219-1.172-.544-2.554-.838-4.103-.838-1.592 0-3.015.335-4.188.922-1.214.586-2.219 1.382-3.015 2.386-.795 1.005-1.382 2.178-1.758 3.476-.419 1.34-.587 2.68-.587 4.104 0 1.423.168 2.805.587 4.103a9.726 9.726 0 0 0 1.758 3.476 8.597 8.597 0 0 0 3.015 2.428c1.173.587 2.596.88 4.188.88 2.177 0 3.936-.461 5.359-1.382 1.424-.921 2.597-2.387 3.602-4.481l-3.099-1.34c-.586 1.34-1.34 2.345-2.219 3.015-.88.67-2.094 1.005-3.643 1.005-.964 0-1.801-.167-2.513-.544-.754-.335-1.34-.838-1.842-1.466-.503-.628-.88-1.381-1.131-2.219a10.838 10.838 0 0 1-.46-2.722h15.493zm-9.547-8.458c1.675 0 3.014.502 3.978 1.507.921 1.005 1.549 2.261 1.884 3.769h-11.599c.293-1.508.921-2.764 1.842-3.769.922-1.005 2.22-1.507 3.895-1.507zm-149.666 33.152h-3.685l-5.234 15.242-5.36-15.242h-3.853l7.412 20.225-3.35 9.422h3.601l10.469-29.647zm2.189 10.553c0 1.423.21 2.805.67 4.103a10.246 10.246 0 0 0 2.01 3.476c.88 1.005 1.926 1.842 3.183 2.428 1.256.587 2.679.88 4.271.88 1.591 0 2.973-.293 4.229-.88 1.256-.586 2.303-1.423 3.182-2.428a10.213 10.213 0 0 0 2.01-3.476c.461-1.298.712-2.68.712-4.103 0-1.424-.251-2.764-.712-4.104a10.627 10.627 0 0 0-2.01-3.476 9.51 9.51 0 0 0-3.182-2.386c-1.256-.587-2.638-.922-4.229-.922-1.592 0-3.015.335-4.271.922a9.514 9.514 0 0 0-3.183 2.386 10.663 10.663 0 0 0-2.01 3.476c-.46 1.34-.67 2.68-.67 4.104zm3.601 0c0-.964.126-1.927.419-2.848.251-.921.67-1.717 1.214-2.47a5.867 5.867 0 0 1 2.052-1.717c.796-.419 1.759-.67 2.848-.67 1.088 0 2.01.251 2.847.67a6.1 6.1 0 0 1 2.01 1.717 8.59 8.59 0 0 1 1.256 2.47c.251.921.419 1.884.419 2.848 0 1.005-.168 1.926-.419 2.847-.293.921-.712 1.759-1.256 2.471a5.774 5.774 0 0 1-2.01 1.758c-.837.419-1.759.628-2.847.628-1.089 0-2.052-.209-2.848-.628a5.57 5.57 0 0 1-2.052-1.758 7.18 7.18 0 0 1-1.214-2.471c-.293-.921-.419-1.842-.419-2.847zm22.234-10.553v14.866c0 2.093.544 3.726 1.633 4.857 1.088 1.172 2.638 1.717 4.564 1.717 1.465 0 2.805-.335 4.02-1.089 1.172-.712 2.177-1.759 2.973-3.141v3.895h3.517v-21.105h-3.517v8.836c0 1.507-.168 2.805-.503 3.978-.335 1.172-.795 2.135-1.34 2.931-.586.837-1.214 1.465-1.926 1.884-.754.419-1.507.628-2.261.628-1.172 0-2.094-.335-2.722-1.047-.628-.711-.921-1.8-.921-3.266v-13.944h-3.517zm33.738 0v3.183h3.015v17.922h3.517v-17.922h4.858v-3.183h-4.858v-1.381c0-1.34.252-2.345.754-3.015.503-.628 1.34-.963 2.513-.963.753 0 1.549.209 2.345.586l.711-3.099a6.161 6.161 0 0 0-1.34-.46 7.308 7.308 0 0 0-1.674-.21c-2.178 0-3.853.586-5.025 1.759-1.215 1.172-1.801 2.973-1.801 5.402v1.381h-3.015zm33.823 11.306v-1.633c0-1.298-.21-2.554-.629-3.768-.418-1.173-1.004-2.262-1.8-3.183-.838-.921-1.843-1.633-3.015-2.219-1.172-.544-2.554-.838-4.104-.838-1.591 0-3.014.335-4.187.922-1.214.586-2.219 1.382-3.015 2.386-.795 1.005-1.382 2.178-1.759 3.476-.418 1.34-.586 2.68-.586 4.104 0 1.423.168 2.805.586 4.103a9.744 9.744 0 0 0 1.759 3.476 8.597 8.597 0 0 0 3.015 2.428c1.173.587 2.596.88 4.187.88 2.178 0 3.937-.461 5.36-1.382 1.424-.921 2.596-2.387 3.601-4.481l-3.098-1.34c-.587 1.34-1.34 2.345-2.22 3.015-.879.67-2.093 1.005-3.643 1.005-.963 0-1.8-.167-2.512-.544-.754-.335-1.34-.838-1.842-1.466-.503-.628-.88-1.381-1.131-2.219a10.882 10.882 0 0 1-.461-2.722h15.494zm-9.548-8.458c1.675 0 3.015.502 3.978 1.507.922 1.005 1.55 2.261 1.885 3.769H324.47c.293-1.508.921-2.764 1.842-3.769.921-1.005 2.219-1.507 3.894-1.507zm33.51 8.458v-1.633c0-1.298-.209-2.554-.628-3.768-.418-1.173-1.005-2.262-1.8-3.183-.838-.921-1.843-1.633-3.015-2.219-1.173-.544-2.554-.838-4.104-.838-1.591 0-3.015.335-4.187.922-1.214.586-2.219 1.382-3.015 2.386-.796 1.005-1.382 2.178-1.759 3.476-.418 1.34-.586 2.68-.586 4.104 0 1.423.168 2.805.586 4.103a9.728 9.728 0 0 0 1.759 3.476 8.597 8.597 0 0 0 3.015 2.428c1.172.587 2.596.88 4.187.88 2.178 0 3.936-.461 5.36-1.382 1.424-.921 2.596-2.387 3.601-4.481l-3.098-1.34c-.587 1.34-1.34 2.345-2.22 3.015-.879.67-2.093 1.005-3.643 1.005-.963 0-1.8-.167-2.512-.544-.754-.335-1.34-.838-1.843-1.466-.502-.628-.879-1.381-1.13-2.219a10.882 10.882 0 0 1-.461-2.722h15.493zm-9.547-8.458c1.675 0 3.015.502 3.978 1.507.921 1.005 1.55 2.261 1.885 3.769h-11.599c.293-1.508.921-2.764 1.842-3.769.921-1.005 2.219-1.507 3.894-1.507zm18.664-11.39h-3.518v29.647h3.518V165.74zm9.817 8.542h-3.518v21.105h3.518v-21.105zm-4.397-5.862c0 .754.251 1.34.754 1.843.502.502 1.13.753 1.884.753s1.382-.251 1.884-.753c.503-.503.754-1.089.754-1.843s-.251-1.382-.754-1.884c-.502-.503-1.13-.796-1.884-.796s-1.382.293-1.884.796c-.503.502-.754 1.13-.754 1.884zm27.359 26.967v-14.865c0-2.094-.586-3.685-1.675-4.858-1.089-1.13-2.596-1.717-4.522-1.717-1.508 0-2.848.377-4.02 1.089-1.214.754-2.219 1.801-2.973 3.141v-3.895h-3.517v21.105h3.517v-8.836c0-1.423.167-2.763.502-3.936.335-1.172.754-2.135 1.34-2.973.545-.795 1.173-1.423 1.927-1.842.711-.419 1.465-.67 2.261-.67 1.172 0 2.052.377 2.68 1.089.628.711.963 1.8.963 3.224v13.944h3.517zm6.845-14.321c0 .963.125 1.842.418 2.596a5.927 5.927 0 0 0 1.131 2.01c-.796.419-1.424.921-1.884 1.591-.461.67-.67 1.424-.67 2.303 0 .754.125 1.424.376 1.968a3.8 3.8 0 0 0 1.047 1.382 5.711 5.711 0 0 0-1.423 1.843c-.377.753-.545 1.591-.545 2.554 0 1.089.21 2.094.628 2.931a5.901 5.901 0 0 0 1.843 2.219c.753.587 1.717 1.047 2.805 1.34 1.089.335 2.345.461 3.685.461 1.173 0 2.303-.126 3.392-.377s2.01-.712 2.847-1.298c.838-.586 1.466-1.34 1.968-2.261.461-.921.712-2.01.712-3.35 0-1.926-.628-3.35-1.842-4.355-1.215-.963-2.806-1.466-4.774-1.466h-4.983c-1.591 0-2.387-.586-2.387-1.758 0-.921.461-1.591 1.382-2.052 1.005.502 2.22.754 3.643.754 1.005 0 1.968-.126 2.89-.461a7.695 7.695 0 0 0 2.344-1.382c.67-.586 1.173-1.34 1.55-2.219a7.525 7.525 0 0 0 .586-2.973c0-1.424-.377-2.722-1.047-3.811l2.848-1.591-1.592-2.889-3.768 2.136c-.586-.294-1.173-.545-1.801-.712a8.237 8.237 0 0 0-2.01-.252c-1.047 0-2.01.168-2.889.503-.921.335-1.675.837-2.345 1.424a6.695 6.695 0 0 0-1.591 2.261c-.377.879-.544 1.842-.544 2.931zm4.899 13.106h4.271c1.005 0 1.884.252 2.554.712.67.461 1.005 1.256 1.005 2.429 0 1.089-.461 2.01-1.298 2.764-.837.753-2.177 1.088-4.02 1.088-1.842 0-3.182-.335-4.103-1.088-.922-.754-1.34-1.717-1.34-2.89 0-.628.083-1.214.293-1.717.209-.502.586-.963 1.088-1.381.21.042.461.083.712.083h.838zm-1.466-13.106c0-1.34.377-2.345 1.173-3.057a4.043 4.043 0 0 1 2.763-1.047c1.047 0 1.968.377 2.764 1.047.754.712 1.172 1.717 1.172 3.057 0 1.34-.418 2.345-1.172 3.015a4.164 4.164 0 0 1-2.764 1.005c-1.088 0-2.01-.335-2.763-1.005-.796-.67-1.173-1.675-1.173-3.015zm-148.951 29.216v3.183h3.643v11.306c0 2.428.545 4.187 1.717 5.276 1.131 1.13 2.596 1.675 4.397 1.675.586 0 1.214-.042 1.801-.168a3.913 3.913 0 0 0 1.633-.628l-.838-3.057c-.419.252-.795.461-1.13.545a5.856 5.856 0 0 1-1.257.125c-.921 0-1.591-.293-2.093-.879-.503-.586-.712-1.424-.712-2.596v-11.599h5.527v-3.183H274.1v-8.542l-3.518 2.22v6.322h-3.643zm16.672 10.553c0 1.423.209 2.805.67 4.103a10.246 10.246 0 0 0 2.01 3.476c.879 1.005 1.926 1.842 3.182 2.428 1.256.587 2.68.88 4.271.88 1.592 0 2.973-.293 4.23-.88 1.256-.586 2.303-1.423 3.182-2.428a10.246 10.246 0 0 0 2.01-3.476c.461-1.298.712-2.68.712-4.103 0-1.424-.251-2.764-.712-4.104a10.663 10.663 0 0 0-2.01-3.476 9.51 9.51 0 0 0-3.182-2.386c-1.257-.587-2.638-.922-4.23-.922-1.591 0-3.015.335-4.271.922a9.51 9.51 0 0 0-3.182 2.386 10.663 10.663 0 0 0-2.01 3.476 12.39 12.39 0 0 0-.67 4.104zm3.601 0c0-.964.126-1.927.419-2.848.251-.921.67-1.717 1.214-2.47a5.867 5.867 0 0 1 2.052-1.717c.796-.419 1.759-.67 2.847-.67a6.21 6.21 0 0 1 2.848.67 6.12 6.12 0 0 1 2.01 1.717 8.59 8.59 0 0 1 1.256 2.47c.251.921.419 1.884.419 2.848 0 1.005-.168 1.926-.419 2.847-.293.921-.712 1.759-1.256 2.471a5.791 5.791 0 0 1-2.01 1.758c-.838.419-1.759.628-2.848.628-1.088 0-2.051-.209-2.847-.628a5.57 5.57 0 0 1-2.052-1.758 7.18 7.18 0 0 1-1.214-2.471c-.293-.921-.419-1.842-.419-2.847zm20.73 0c0 1.591.167 3.056.586 4.396.377 1.34.963 2.471 1.759 3.434a8.223 8.223 0 0 0 2.931 2.261c1.172.544 2.512.796 4.103.796.629 0 1.257-.042 1.885-.21a8.017 8.017 0 0 0 1.758-.67 7.253 7.253 0 0 0 1.466-.921c.419-.335.796-.712 1.047-1.13v2.596h3.517V201.74h-3.517v11.055c-.168-.293-.461-.628-.879-.963-.419-.335-.922-.628-1.466-.921-.586-.252-1.172-.503-1.842-.67-.67-.168-1.299-.294-1.969-.294-1.591 0-2.931.294-4.103.838a8.223 8.223 0 0 0-2.931 2.261c-.796.963-1.382 2.094-1.759 3.434-.419 1.34-.586 2.763-.586 4.355zm3.601 0c0-1.089.126-2.136.419-3.099.293-.921.712-1.759 1.256-2.429a5.456 5.456 0 0 1 1.926-1.591 5.548 5.548 0 0 1 2.512-.586c.922 0 1.801.209 2.555.586a5.474 5.474 0 0 1 1.926 1.591c.502.67.921 1.508 1.214 2.429.252.963.419 2.01.419 3.099 0 1.172-.167 2.219-.419 3.14-.293.921-.712 1.759-1.214 2.429a5.474 5.474 0 0 1-1.926 1.591c-.754.377-1.633.544-2.555.544-.921 0-1.758-.167-2.512-.544a5.456 5.456 0 0 1-1.926-1.591c-.544-.67-.963-1.508-1.256-2.429-.293-.921-.419-1.968-.419-3.14zm24.619 4.48c0-1.172.461-2.094 1.424-2.764.963-.628 2.345-.963 4.187-.963h3.769v.503c0 1.214-.21 2.219-.545 3.057-.377.837-.837 1.465-1.382 1.968-.586.502-1.214.879-1.926 1.088a5.996 5.996 0 0 1-2.052.335c-1.13 0-2.009-.251-2.596-.837-.586-.586-.879-1.382-.879-2.387zm12.897 6.072v-13.484c0-1.381-.209-2.596-.628-3.601-.419-1.005-.963-1.8-1.675-2.47-.754-.628-1.591-1.089-2.596-1.424a11.32 11.32 0 0 0-3.224-.461c-2.01 0-3.685.545-5.025 1.55-1.34 1.047-2.178 2.47-2.471 4.229l3.099.712c.209-1.047.712-1.843 1.549-2.429.796-.586 1.759-.879 2.848-.879 1.256 0 2.344.335 3.266.963.879.67 1.34 1.801 1.34 3.392v.921h-3.434c-1.466 0-2.764.167-3.936.461-1.173.293-2.178.711-3.015 1.298-.837.586-1.507 1.34-1.926 2.177-.461.879-.67 1.884-.67 2.973 0 1.173.167 2.136.502 2.931a5.302 5.302 0 0 0 1.424 1.968c.586.545 1.298.921 2.094 1.173.753.251 1.591.335 2.512.335 1.591 0 2.889-.293 3.978-.922a7.237 7.237 0 0 0 2.638-2.386l.586 2.973h2.764zm20.935-21.105h-3.685l-5.234 15.242-5.36-15.242h-3.852l7.411 20.225-3.35 9.422h3.601l10.469-29.647zm7.49 18.467c0 .795.251 1.465.795 1.968.503.544 1.173.795 1.968.795.796 0 1.466-.251 2.01-.795.545-.503.838-1.173.838-1.968 0-.796-.293-1.466-.838-2.01a2.747 2.747 0 0 0-2.01-.838c-.795 0-1.465.293-1.968.838-.544.544-.795 1.214-.795 2.01zm8.374-10.217-2.721-.964a6.118 6.118 0 0 1-1.131 1.717c-.461.503-1.089.754-1.884.754-.67 0-1.215-.168-1.592-.544-.418-.377-.586-.922-.586-1.592 0-.544.126-1.046.461-1.549.293-.46.837-.921 1.591-1.34l4.229-2.052c1.047-.502 1.843-1.214 2.387-2.093a5.53 5.53 0 0 0 .796-2.89c0-.837-.168-1.591-.461-2.345a6.717 6.717 0 0 0-1.424-2.051 7.833 7.833 0 0 0-2.219-1.34c-.879-.335-1.884-.503-2.973-.503-2.136 0-3.852.586-5.15 1.717-1.299 1.173-2.136 2.68-2.513 4.564l3.266.545a6.024 6.024 0 0 1 1.591-2.806c.754-.712 1.675-1.089 2.806-1.089.628 0 1.172.084 1.591.252.419.167.796.377 1.131.67.586.544.921 1.256.921 2.177 0 .628-.126 1.173-.377 1.675s-.754.921-1.465 1.298l-.922.461c-.293.125-.586.251-.879.335-.293.125-.586.251-.921.377-.335.167-.712.335-1.131.544-1.089.586-1.968 1.298-2.596 2.135-.67.838-.963 1.885-.963 3.141 0 1.633.502 2.931 1.507 3.852 1.005.922 2.345 1.382 4.02 1.382 1.34 0 2.471-.377 3.434-1.13.963-.754 1.675-1.885 2.177-3.308z" fill="#fff"/><defs><clipPath id="a"><path fill="#fff" d="M0 0h443.859v265.897H0z"/></clipPath><clipPath id="b"><path fill="#fff" d="M0 0h470.03v420.829H0z"/></clipPath><clipPath id="c"><path fill="#fff" transform="rotate(-180 221.93 201.516)" d="M0 0h443.86v265.897H0z"/></clipPath><clipPath id="d"><path fill="#fff" transform="translate(18.844 70.137)" d="M0 0h405.126v282.646H0z"/></clipPath></defs></svg>