<svg xmlns="http://www.w3.org/2000/svg" style="margin:auto;background:rgba(NaN,NaN,NaN,0);display:block;z-index:1;position:relative" width="2266" height="1658" preserveAspectRatio="xMidYMid"><g transform="translate(-100 1260.61)"><animateTransform attributeName="transform" type="translate" keyTimes="0;1" values="-100 1260.6091019501862;2266 1260.6091019501862" dur="200s" repeatCount="indefinite" begin="-5.631235964469816s"/><path d="M93.189 36.957a28.437 28.437 0 0 0 1.304-8.55C94.493 12.752 81.74 0 66.087 0c-10.87 0-20.29 6.087-25.072 15.072-1.74-.58-3.769-.87-5.652-.87a18.804 18.804 0 0 0-18.841 18.84c0 1.306.145 2.61.435 3.77C7.39 38.262 0 46.666 0 56.666a20.103 20.103 0 0 0 20.145 20.145h69.71A20.102 20.102 0 0 0 110 56.667c-.145-9.855-7.39-18.116-16.811-19.71z" fill="#bddeff"/></g><g transform="translate(-100 1385.721)"><animateTransform attributeName="transform" type="translate" keyTimes="0;1" values="-100 1385.7213250142008;2266 1385.7213250142008" dur="200s" repeatCount="indefinite" begin="-100.24063112632876s"/><path d="M93.189 36.957a28.437 28.437 0 0 0 1.304-8.55C94.493 12.752 81.74 0 66.087 0c-10.87 0-20.29 6.087-25.072 15.072-1.74-.58-3.769-.87-5.652-.87a18.804 18.804 0 0 0-18.841 18.84c0 1.306.145 2.61.435 3.77C7.39 38.262 0 46.666 0 56.666a20.103 20.103 0 0 0 20.145 20.145h69.71A20.102 20.102 0 0 0 110 56.667c-.145-9.855-7.39-18.116-16.811-19.71z" fill="#bddeff"/></g><g transform="translate(-100 1452.995)"><animateTransform attributeName="transform" type="translate" keyTimes="0;1" values="-100 1452.9950344619476;2266 1452.9950344619476" dur="200s" repeatCount="indefinite" begin="-1.85595919858339s"/><path d="M93.189 36.957a28.437 28.437 0 0 0 1.304-8.55C94.493 12.752 81.74 0 66.087 0c-10.87 0-20.29 6.087-25.072 15.072-1.74-.58-3.769-.87-5.652-.87a18.804 18.804 0 0 0-18.841 18.84c0 1.306.145 2.61.435 3.77C7.39 38.262 0 46.666 0 56.666a20.103 20.103 0 0 0 20.145 20.145h69.71A20.102 20.102 0 0 0 110 56.667c-.145-9.855-7.39-18.116-16.811-19.71z" fill="#bddeff"/></g><g transform="translate(-100 1.408)"><animateTransform attributeName="transform" type="translate" keyTimes="0;1" values="-100 1.4081592657957662;2266 1.4081592657957662" dur="200s" repeatCount="indefinite" begin="-178.18699256942506s"/><path d="M93.189 36.957a28.437 28.437 0 0 0 1.304-8.55C94.493 12.752 81.74 0 66.087 0c-10.87 0-20.29 6.087-25.072 15.072-1.74-.58-3.769-.87-5.652-.87a18.804 18.804 0 0 0-18.841 18.84c0 1.306.145 2.61.435 3.77C7.39 38.262 0 46.666 0 56.666a20.103 20.103 0 0 0 20.145 20.145h69.71A20.102 20.102 0 0 0 110 56.667c-.145-9.855-7.39-18.116-16.811-19.71z" fill="#bddeff"/></g><g transform="translate(-100 1508.82)"><animateTransform attributeName="transform" type="translate" keyTimes="0;1" values="-100 1508.820773917906;2266 1508.820773917906" dur="200s" repeatCount="indefinite" begin="-182.45790267943556s"/><path d="M93.189 36.957a28.437 28.437 0 0 0 1.304-8.55C94.493 12.752 81.74 0 66.087 0c-10.87 0-20.29 6.087-25.072 15.072-1.74-.58-3.769-.87-5.652-.87a18.804 18.804 0 0 0-18.841 18.84c0 1.306.145 2.61.435 3.77C7.39 38.262 0 46.666 0 56.666a20.103 20.103 0 0 0 20.145 20.145h69.71A20.102 20.102 0 0 0 110 56.667c-.145-9.855-7.39-18.116-16.811-19.71z" fill="#bddeff"/></g><g transform="translate(-100 699.088)"><animateTransform attributeName="transform" type="translate" keyTimes="0;1" values="-100 699.0883257508669;2266 699.0883257508669" dur="200s" repeatCount="indefinite" begin="-149.35918925952234s"/><path d="M93.189 36.957a28.437 28.437 0 0 0 1.304-8.55C94.493 12.752 81.74 0 66.087 0c-10.87 0-20.29 6.087-25.072 15.072-1.74-.58-3.769-.87-5.652-.87a18.804 18.804 0 0 0-18.841 18.84c0 1.306.145 2.61.435 3.77C7.39 38.262 0 46.666 0 56.666a20.103 20.103 0 0 0 20.145 20.145h69.71A20.102 20.102 0 0 0 110 56.667c-.145-9.855-7.39-18.116-16.811-19.71z" fill="#bddeff"/></g><g transform="translate(-100 603.301)"><animateTransform attributeName="transform" type="translate" keyTimes="0;1" values="-100 603.3011236552171;2266 603.3011236552171" dur="200s" repeatCount="indefinite" begin="-142.20807543881753s"/><path d="M93.189 36.957a28.437 28.437 0 0 0 1.304-8.55C94.493 12.752 81.74 0 66.087 0c-10.87 0-20.29 6.087-25.072 15.072-1.74-.58-3.769-.87-5.652-.87a18.804 18.804 0 0 0-18.841 18.84c0 1.306.145 2.61.435 3.77C7.39 38.262 0 46.666 0 56.666a20.103 20.103 0 0 0 20.145 20.145h69.71A20.102 20.102 0 0 0 110 56.667c-.145-9.855-7.39-18.116-16.811-19.71z" fill="#bddeff"/></g><g transform="translate(-100 1483.114)"><animateTransform attributeName="transform" type="translate" keyTimes="0;1" values="-100 1483.1140626694073;2266 1483.1140626694073" dur="200s" repeatCount="indefinite" begin="-193.57827878662368s"/><path d="M93.189 36.957a28.437 28.437 0 0 0 1.304-8.55C94.493 12.752 81.74 0 66.087 0c-10.87 0-20.29 6.087-25.072 15.072-1.74-.58-3.769-.87-5.652-.87a18.804 18.804 0 0 0-18.841 18.84c0 1.306.145 2.61.435 3.77C7.39 38.262 0 46.666 0 56.666a20.103 20.103 0 0 0 20.145 20.145h69.71A20.102 20.102 0 0 0 110 56.667c-.145-9.855-7.39-18.116-16.811-19.71z" fill="#bddeff"/></g><g transform="translate(-100 1464.476)"><animateTransform attributeName="transform" type="translate" keyTimes="0;1" values="-100 1464.4756488234746;2266 1464.4756488234746" dur="200s" repeatCount="indefinite" begin="-184.37314722366253s"/><path d="M93.189 36.957a28.437 28.437 0 0 0 1.304-8.55C94.493 12.752 81.74 0 66.087 0c-10.87 0-20.29 6.087-25.072 15.072-1.74-.58-3.769-.87-5.652-.87a18.804 18.804 0 0 0-18.841 18.84c0 1.306.145 2.61.435 3.77C7.39 38.262 0 46.666 0 56.666a20.103 20.103 0 0 0 20.145 20.145h69.71A20.102 20.102 0 0 0 110 56.667c-.145-9.855-7.39-18.116-16.811-19.71z" fill="#bddeff"/></g><g transform="translate(-100 1104.003)"><animateTransform attributeName="transform" type="translate" keyTimes="0;1" values="-100 1104.0031551303096;2266 1104.0031551303096" dur="200s" repeatCount="indefinite" begin="-72.24632966776726s"/><path d="M93.189 36.957a28.437 28.437 0 0 0 1.304-8.55C94.493 12.752 81.74 0 66.087 0c-10.87 0-20.29 6.087-25.072 15.072-1.74-.58-3.769-.87-5.652-.87a18.804 18.804 0 0 0-18.841 18.84c0 1.306.145 2.61.435 3.77C7.39 38.262 0 46.666 0 56.666a20.103 20.103 0 0 0 20.145 20.145h69.71A20.102 20.102 0 0 0 110 56.667c-.145-9.855-7.39-18.116-16.811-19.71z" fill="#bddeff"/></g><g transform="translate(-100 1002.49)"><animateTransform attributeName="transform" type="translate" keyTimes="0;1" values="-100 1002.4903581222956;2266 1002.4903581222956" dur="200s" repeatCount="indefinite" begin="-58.391094213494114s"/><path d="M93.189 36.957a28.437 28.437 0 0 0 1.304-8.55C94.493 12.752 81.74 0 66.087 0c-10.87 0-20.29 6.087-25.072 15.072-1.74-.58-3.769-.87-5.652-.87a18.804 18.804 0 0 0-18.841 18.84c0 1.306.145 2.61.435 3.77C7.39 38.262 0 46.666 0 56.666a20.103 20.103 0 0 0 20.145 20.145h69.71A20.102 20.102 0 0 0 110 56.667c-.145-9.855-7.39-18.116-16.811-19.71z" fill="#bddeff"/></g><g transform="translate(-100 459.508)"><animateTransform attributeName="transform" type="translate" keyTimes="0;1" values="-100 459.5081258021459;2266 459.5081258021459" dur="200s" repeatCount="indefinite" begin="-171.98760290418073s"/><path d="M93.189 36.957a28.437 28.437 0 0 0 1.304-8.55C94.493 12.752 81.74 0 66.087 0c-10.87 0-20.29 6.087-25.072 15.072-1.74-.58-3.769-.87-5.652-.87a18.804 18.804 0 0 0-18.841 18.84c0 1.306.145 2.61.435 3.77C7.39 38.262 0 46.666 0 56.666a20.103 20.103 0 0 0 20.145 20.145h69.71A20.102 20.102 0 0 0 110 56.667c-.145-9.855-7.39-18.116-16.811-19.71z" fill="#bddeff"/></g><g transform="translate(-100 1051.88)"><animateTransform attributeName="transform" type="translate" keyTimes="0;1" values="-100 1051.8809305632246;2266 1051.8809305632246" dur="100s" repeatCount="indefinite" begin="-51.481382064770244s"/><path d="M118.604 47.036a36.192 36.192 0 0 0 1.66-10.882C120.264 16.232 104.031 0 84.111 0 70.277 0 58.288 7.748 52.2 19.183c-2.214-.738-4.797-1.108-7.194-1.108a23.932 23.932 0 0 0-23.979 23.98c0 1.66.185 3.32.553 4.796C9.407 48.696 0 59.394 0 72.121a25.585 25.585 0 0 0 25.64 25.64h88.722A25.585 25.585 0 0 0 140 72.12c-.185-12.543-9.407-23.057-21.396-25.085z" fill="#fff"/></g><g transform="translate(-100 558.616)"><animateTransform attributeName="transform" type="translate" keyTimes="0;1" values="-100 558.6163077061351;2266 558.6163077061351" dur="100s" repeatCount="indefinite" begin="-113.2389466676114s"/><path d="M118.604 47.036a36.192 36.192 0 0 0 1.66-10.882C120.264 16.232 104.031 0 84.111 0 70.277 0 58.288 7.748 52.2 19.183c-2.214-.738-4.797-1.108-7.194-1.108a23.932 23.932 0 0 0-23.979 23.98c0 1.66.185 3.32.553 4.796C9.407 48.696 0 59.394 0 72.121a25.585 25.585 0 0 0 25.64 25.64h88.722A25.585 25.585 0 0 0 140 72.12c-.185-12.543-9.407-23.057-21.396-25.085z" fill="#fff"/></g><g transform="translate(-100 435.669)"><animateTransform attributeName="transform" type="translate" keyTimes="0;1" values="-100 435.66867889774136;2266 435.66867889774136" dur="100s" repeatCount="indefinite" begin="-92.24404798136989s"/><path d="M118.604 47.036a36.192 36.192 0 0 0 1.66-10.882C120.264 16.232 104.031 0 84.111 0 70.277 0 58.288 7.748 52.2 19.183c-2.214-.738-4.797-1.108-7.194-1.108a23.932 23.932 0 0 0-23.979 23.98c0 1.66.185 3.32.553 4.796C9.407 48.696 0 59.394 0 72.121a25.585 25.585 0 0 0 25.64 25.64h88.722A25.585 25.585 0 0 0 140 72.12c-.185-12.543-9.407-23.057-21.396-25.085z" fill="#fff"/></g><g transform="translate(-100 946.804)"><animateTransform attributeName="transform" type="translate" keyTimes="0;1" values="-100 946.8038568846337;2266 946.8038568846337" dur="100s" repeatCount="indefinite" begin="-122.50153708329204s"/><path d="M118.604 47.036a36.192 36.192 0 0 0 1.66-10.882C120.264 16.232 104.031 0 84.111 0 70.277 0 58.288 7.748 52.2 19.183c-2.214-.738-4.797-1.108-7.194-1.108a23.932 23.932 0 0 0-23.979 23.98c0 1.66.185 3.32.553 4.796C9.407 48.696 0 59.394 0 72.121a25.585 25.585 0 0 0 25.64 25.64h88.722A25.585 25.585 0 0 0 140 72.12c-.185-12.543-9.407-23.057-21.396-25.085z" fill="#fff"/></g><g transform="translate(-100 198.294)"><animateTransform attributeName="transform" type="translate" keyTimes="0;1" values="-100 198.2936172184848;2266 198.2936172184848" dur="100s" repeatCount="indefinite" begin="-73.48803631434788s"/><path d="M118.604 47.036a36.192 36.192 0 0 0 1.66-10.882C120.264 16.232 104.031 0 84.111 0 70.277 0 58.288 7.748 52.2 19.183c-2.214-.738-4.797-1.108-7.194-1.108a23.932 23.932 0 0 0-23.979 23.98c0 1.66.185 3.32.553 4.796C9.407 48.696 0 59.394 0 72.121a25.585 25.585 0 0 0 25.64 25.64h88.722A25.585 25.585 0 0 0 140 72.12c-.185-12.543-9.407-23.057-21.396-25.085z" fill="#fff"/></g><g transform="translate(-100 687.398)"><animateTransform attributeName="transform" type="translate" keyTimes="0;1" values="-100 687.3979849855035;2266 687.3979849855035" dur="100s" repeatCount="indefinite" begin="-10.618913374255445s"/><path d="M118.604 47.036a36.192 36.192 0 0 0 1.66-10.882C120.264 16.232 104.031 0 84.111 0 70.277 0 58.288 7.748 52.2 19.183c-2.214-.738-4.797-1.108-7.194-1.108a23.932 23.932 0 0 0-23.979 23.98c0 1.66.185 3.32.553 4.796C9.407 48.696 0 59.394 0 72.121a25.585 25.585 0 0 0 25.64 25.64h88.722A25.585 25.585 0 0 0 140 72.12c-.185-12.543-9.407-23.057-21.396-25.085z" fill="#fff"/></g><g transform="translate(-100 419.81)"><animateTransform attributeName="transform" type="translate" keyTimes="0;1" values="-100 419.8100426610643;2266 419.8100426610643" dur="100s" repeatCount="indefinite" begin="-8.907546975501113s"/><path d="M118.604 47.036a36.192 36.192 0 0 0 1.66-10.882C120.264 16.232 104.031 0 84.111 0 70.277 0 58.288 7.748 52.2 19.183c-2.214-.738-4.797-1.108-7.194-1.108a23.932 23.932 0 0 0-23.979 23.98c0 1.66.185 3.32.553 4.796C9.407 48.696 0 59.394 0 72.121a25.585 25.585 0 0 0 25.64 25.64h88.722A25.585 25.585 0 0 0 140 72.12c-.185-12.543-9.407-23.057-21.396-25.085z" fill="#fff"/></g><g transform="translate(-100 1551.206)"><animateTransform attributeName="transform" type="translate" keyTimes="0;1" values="-100 1551.2056524073448;2266 1551.2056524073448" dur="100s" repeatCount="indefinite" begin="-73.06206756397825s"/><path d="M118.604 47.036a36.192 36.192 0 0 0 1.66-10.882C120.264 16.232 104.031 0 84.111 0 70.277 0 58.288 7.748 52.2 19.183c-2.214-.738-4.797-1.108-7.194-1.108a23.932 23.932 0 0 0-23.979 23.98c0 1.66.185 3.32.553 4.796C9.407 48.696 0 59.394 0 72.121a25.585 25.585 0 0 0 25.64 25.64h88.722A25.585 25.585 0 0 0 140 72.12c-.185-12.543-9.407-23.057-21.396-25.085z" fill="#fff"/></g><g transform="translate(-100 1296.985)"><animateTransform attributeName="transform" type="translate" keyTimes="0;1" values="-100 1296.9852046864144;2266 1296.9852046864144" dur="100s" repeatCount="indefinite" begin="-103.61906306824355s"/><path d="M118.604 47.036a36.192 36.192 0 0 0 1.66-10.882C120.264 16.232 104.031 0 84.111 0 70.277 0 58.288 7.748 52.2 19.183c-2.214-.738-4.797-1.108-7.194-1.108a23.932 23.932 0 0 0-23.979 23.98c0 1.66.185 3.32.553 4.796C9.407 48.696 0 59.394 0 72.121a25.585 25.585 0 0 0 25.64 25.64h88.722A25.585 25.585 0 0 0 140 72.12c-.185-12.543-9.407-23.057-21.396-25.085z" fill="#fff"/></g><g transform="translate(-100 1572.335)"><animateTransform attributeName="transform" type="translate" keyTimes="0;1" values="-100 1572.3352450725095;2266 1572.3352450725095" dur="100s" repeatCount="indefinite" begin="-120.6418520873164s"/><path d="M118.604 47.036a36.192 36.192 0 0 0 1.66-10.882C120.264 16.232 104.031 0 84.111 0 70.277 0 58.288 7.748 52.2 19.183c-2.214-.738-4.797-1.108-7.194-1.108a23.932 23.932 0 0 0-23.979 23.98c0 1.66.185 3.32.553 4.796C9.407 48.696 0 59.394 0 72.121a25.585 25.585 0 0 0 25.64 25.64h88.722A25.585 25.585 0 0 0 140 72.12c-.185-12.543-9.407-23.057-21.396-25.085z" fill="#fff"/></g><g transform="translate(-100 133.656)"><animateTransform attributeName="transform" type="translate" keyTimes="0;1" values="-100 133.6558142391352;2266 133.6558142391352" dur="100s" repeatCount="indefinite" begin="-65.48502358603704s"/><path d="M118.604 47.036a36.192 36.192 0 0 0 1.66-10.882C120.264 16.232 104.031 0 84.111 0 70.277 0 58.288 7.748 52.2 19.183c-2.214-.738-4.797-1.108-7.194-1.108a23.932 23.932 0 0 0-23.979 23.98c0 1.66.185 3.32.553 4.796C9.407 48.696 0 59.394 0 72.121a25.585 25.585 0 0 0 25.64 25.64h88.722A25.585 25.585 0 0 0 140 72.12c-.185-12.543-9.407-23.057-21.396-25.085z" fill="#fff"/></g><g transform="translate(-100 347.527)"><animateTransform attributeName="transform" type="translate" keyTimes="0;1" values="-100 347.52740931971346;2266 347.52740931971346" dur="100s" repeatCount="indefinite" begin="-133.58789730945725s"/><path d="M118.604 47.036a36.192 36.192 0 0 0 1.66-10.882C120.264 16.232 104.031 0 84.111 0 70.277 0 58.288 7.748 52.2 19.183c-2.214-.738-4.797-1.108-7.194-1.108a23.932 23.932 0 0 0-23.979 23.98c0 1.66.185 3.32.553 4.796C9.407 48.696 0 59.394 0 72.121a25.585 25.585 0 0 0 25.64 25.64h88.722A25.585 25.585 0 0 0 140 72.12c-.185-12.543-9.407-23.057-21.396-25.085z" fill="#fff"/></g><g transform="translate(-100 263.38)"><animateTransform attributeName="transform" type="translate" keyTimes="0;1" values="-100 263.3798694696036;2266 263.3798694696036" dur="100s" repeatCount="indefinite" begin="-81.49870350912809s"/><path d="M118.604 47.036a36.192 36.192 0 0 0 1.66-10.882C120.264 16.232 104.031 0 84.111 0 70.277 0 58.288 7.748 52.2 19.183c-2.214-.738-4.797-1.108-7.194-1.108a23.932 23.932 0 0 0-23.979 23.98c0 1.66.185 3.32.553 4.796C9.407 48.696 0 59.394 0 72.121a25.585 25.585 0 0 0 25.64 25.64h88.722A25.585 25.585 0 0 0 140 72.12c-.185-12.543-9.407-23.057-21.396-25.085z" fill="#fff"/></g><g transform="translate(-100 635.689)"><animateTransform attributeName="transform" type="translate" keyTimes="0;1" values="-100 635.6888923231992;2266 635.6888923231992" dur="66.66666666666667s" repeatCount="indefinite" begin="-30.08598084908387s"/><path d="M144.019 57.115a43.947 43.947 0 0 0 2.016-13.214C146.035 19.71 126.324 0 102.135 0 85.336 0 70.777 9.408 63.385 23.293c-2.688-.896-5.824-1.344-8.734-1.344-16.127 0-29.118 12.991-29.118 29.117 0 2.016.224 4.033.671 5.824C11.422 59.131 0 72.12 0 87.576c0 17.246 13.887 31.133 31.134 31.133h107.734c17.245 0 31.132-13.887 31.132-31.133-.224-15.23-11.422-27.998-25.981-30.461z" fill="#f1f2f3"/></g><g transform="translate(-100 1450.745)"><animateTransform attributeName="transform" type="translate" keyTimes="0;1" values="-100 1450.7452728128835;2266 1450.7452728128835" dur="66.66666666666667s" repeatCount="indefinite" begin="-74.62647164747445s"/><path d="M144.019 57.115a43.947 43.947 0 0 0 2.016-13.214C146.035 19.71 126.324 0 102.135 0 85.336 0 70.777 9.408 63.385 23.293c-2.688-.896-5.824-1.344-8.734-1.344-16.127 0-29.118 12.991-29.118 29.117 0 2.016.224 4.033.671 5.824C11.422 59.131 0 72.12 0 87.576c0 17.246 13.887 31.133 31.134 31.133h107.734c17.245 0 31.132-13.887 31.132-31.133-.224-15.23-11.422-27.998-25.981-30.461z" fill="#f1f2f3"/></g><g transform="translate(-100 450.204)"><animateTransform attributeName="transform" type="translate" keyTimes="0;1" values="-100 450.2042122013265;2266 450.2042122013265" dur="66.66666666666667s" repeatCount="indefinite" begin="-98.1572598770816s"/><path d="M144.019 57.115a43.947 43.947 0 0 0 2.016-13.214C146.035 19.71 126.324 0 102.135 0 85.336 0 70.777 9.408 63.385 23.293c-2.688-.896-5.824-1.344-8.734-1.344-16.127 0-29.118 12.991-29.118 29.117 0 2.016.224 4.033.671 5.824C11.422 59.131 0 72.12 0 87.576c0 17.246 13.887 31.133 31.134 31.133h107.734c17.245 0 31.132-13.887 31.132-31.133-.224-15.23-11.422-27.998-25.981-30.461z" fill="#f1f2f3"/></g><g transform="translate(-100 1206.465)"><animateTransform attributeName="transform" type="translate" keyTimes="0;1" values="-100 1206.464967606483;2266 1206.464967606483" dur="66.66666666666667s" repeatCount="indefinite" begin="-177.64680172500013s"/><path d="M144.019 57.115a43.947 43.947 0 0 0 2.016-13.214C146.035 19.71 126.324 0 102.135 0 85.336 0 70.777 9.408 63.385 23.293c-2.688-.896-5.824-1.344-8.734-1.344-16.127 0-29.118 12.991-29.118 29.117 0 2.016.224 4.033.671 5.824C11.422 59.131 0 72.12 0 87.576c0 17.246 13.887 31.133 31.134 31.133h107.734c17.245 0 31.132-13.887 31.132-31.133-.224-15.23-11.422-27.998-25.981-30.461z" fill="#f1f2f3"/></g><g transform="translate(-100 807.145)"><animateTransform attributeName="transform" type="translate" keyTimes="0;1" values="-100 807.1453212572702;2266 807.1453212572702" dur="66.66666666666667s" repeatCount="indefinite" begin="-124.51183485204483s"/><path d="M144.019 57.115a43.947 43.947 0 0 0 2.016-13.214C146.035 19.71 126.324 0 102.135 0 85.336 0 70.777 9.408 63.385 23.293c-2.688-.896-5.824-1.344-8.734-1.344-16.127 0-29.118 12.991-29.118 29.117 0 2.016.224 4.033.671 5.824C11.422 59.131 0 72.12 0 87.576c0 17.246 13.887 31.133 31.134 31.133h107.734c17.245 0 31.132-13.887 31.132-31.133-.224-15.23-11.422-27.998-25.981-30.461z" fill="#f1f2f3"/></g><g transform="translate(-100 645.822)"><animateTransform attributeName="transform" type="translate" keyTimes="0;1" values="-100 645.8218943114931;2266 645.8218943114931" dur="66.66666666666667s" repeatCount="indefinite" begin="-27.970210741021752s"/><path d="M144.019 57.115a43.947 43.947 0 0 0 2.016-13.214C146.035 19.71 126.324 0 102.135 0 85.336 0 70.777 9.408 63.385 23.293c-2.688-.896-5.824-1.344-8.734-1.344-16.127 0-29.118 12.991-29.118 29.117 0 2.016.224 4.033.671 5.824C11.422 59.131 0 72.12 0 87.576c0 17.246 13.887 31.133 31.134 31.133h107.734c17.245 0 31.132-13.887 31.132-31.133-.224-15.23-11.422-27.998-25.981-30.461z" fill="#f1f2f3"/></g><g transform="translate(-100 458.828)"><animateTransform attributeName="transform" type="translate" keyTimes="0;1" values="-100 458.8283777403374;2266 458.8283777403374" dur="66.66666666666667s" repeatCount="indefinite" begin="-87.7748059654341s"/><path d="M144.019 57.115a43.947 43.947 0 0 0 2.016-13.214C146.035 19.71 126.324 0 102.135 0 85.336 0 70.777 9.408 63.385 23.293c-2.688-.896-5.824-1.344-8.734-1.344-16.127 0-29.118 12.991-29.118 29.117 0 2.016.224 4.033.671 5.824C11.422 59.131 0 72.12 0 87.576c0 17.246 13.887 31.133 31.134 31.133h107.734c17.245 0 31.132-13.887 31.132-31.133-.224-15.23-11.422-27.998-25.981-30.461z" fill="#f1f2f3"/></g><g transform="translate(-100 636.47)"><animateTransform attributeName="transform" type="translate" keyTimes="0;1" values="-100 636.4701961588264;2266 636.4701961588264" dur="66.66666666666667s" repeatCount="indefinite" begin="-26.07510304122691s"/><path d="M144.019 57.115a43.947 43.947 0 0 0 2.016-13.214C146.035 19.71 126.324 0 102.135 0 85.336 0 70.777 9.408 63.385 23.293c-2.688-.896-5.824-1.344-8.734-1.344-16.127 0-29.118 12.991-29.118 29.117 0 2.016.224 4.033.671 5.824C11.422 59.131 0 72.12 0 87.576c0 17.246 13.887 31.133 31.134 31.133h107.734c17.245 0 31.132-13.887 31.132-31.133-.224-15.23-11.422-27.998-25.981-30.461z" fill="#f1f2f3"/></g><g transform="translate(-100 1567.793)"><animateTransform attributeName="transform" type="translate" keyTimes="0;1" values="-100 1567.793196155014;2266 1567.793196155014" dur="66.66666666666667s" repeatCount="indefinite" begin="-78.52854001533531s"/><path d="M144.019 57.115a43.947 43.947 0 0 0 2.016-13.214C146.035 19.71 126.324 0 102.135 0 85.336 0 70.777 9.408 63.385 23.293c-2.688-.896-5.824-1.344-8.734-1.344-16.127 0-29.118 12.991-29.118 29.117 0 2.016.224 4.033.671 5.824C11.422 59.131 0 72.12 0 87.576c0 17.246 13.887 31.133 31.134 31.133h107.734c17.245 0 31.132-13.887 31.132-31.133-.224-15.23-11.422-27.998-25.981-30.461z" fill="#f1f2f3"/></g><g transform="translate(-100 967.493)"><animateTransform attributeName="transform" type="translate" keyTimes="0;1" values="-100 967.4928609959384;2266 967.4928609959384" dur="66.66666666666667s" repeatCount="indefinite" begin="-160.50955333094538s"/><path d="M144.019 57.115a43.947 43.947 0 0 0 2.016-13.214C146.035 19.71 126.324 0 102.135 0 85.336 0 70.777 9.408 63.385 23.293c-2.688-.896-5.824-1.344-8.734-1.344-16.127 0-29.118 12.991-29.118 29.117 0 2.016.224 4.033.671 5.824C11.422 59.131 0 72.12 0 87.576c0 17.246 13.887 31.133 31.134 31.133h107.734c17.245 0 31.132-13.887 31.132-31.133-.224-15.23-11.422-27.998-25.981-30.461z" fill="#f1f2f3"/></g><g transform="translate(-100 1490.335)"><animateTransform attributeName="transform" type="translate" keyTimes="0;1" values="-100 1490.3349801815118;2266 1490.3349801815118" dur="66.66666666666667s" repeatCount="indefinite" begin="-52.50581996060815s"/><path d="M144.019 57.115a43.947 43.947 0 0 0 2.016-13.214C146.035 19.71 126.324 0 102.135 0 85.336 0 70.777 9.408 63.385 23.293c-2.688-.896-5.824-1.344-8.734-1.344-16.127 0-29.118 12.991-29.118 29.117 0 2.016.224 4.033.671 5.824C11.422 59.131 0 72.12 0 87.576c0 17.246 13.887 31.133 31.134 31.133h107.734c17.245 0 31.132-13.887 31.132-31.133-.224-15.23-11.422-27.998-25.981-30.461z" fill="#f1f2f3"/></g><g transform="translate(-100 1216.31)"><animateTransform attributeName="transform" type="translate" keyTimes="0;1" values="-100 1216.3094479648398;2266 1216.3094479648398" dur="66.66666666666667s" repeatCount="indefinite" begin="-161.52505356960071s"/><path d="M144.019 57.115a43.947 43.947 0 0 0 2.016-13.214C146.035 19.71 126.324 0 102.135 0 85.336 0 70.777 9.408 63.385 23.293c-2.688-.896-5.824-1.344-8.734-1.344-16.127 0-29.118 12.991-29.118 29.117 0 2.016.224 4.033.671 5.824C11.422 59.131 0 72.12 0 87.576c0 17.246 13.887 31.133 31.134 31.133h107.734c17.245 0 31.132-13.887 31.132-31.133-.224-15.23-11.422-27.998-25.981-30.461z" fill="#f1f2f3"/></g><g transform="translate(-100 501.108)"><animateTransform attributeName="transform" type="translate" keyTimes="0;1" values="-100 501.1083649071434;2266 501.1083649071434" dur="66.66666666666667s" repeatCount="indefinite" begin="-44.76132425117845s"/><path d="M144.019 57.115a43.947 43.947 0 0 0 2.016-13.214C146.035 19.71 126.324 0 102.135 0 85.336 0 70.777 9.408 63.385 23.293c-2.688-.896-5.824-1.344-8.734-1.344-16.127 0-29.118 12.991-29.118 29.117 0 2.016.224 4.033.671 5.824C11.422 59.131 0 72.12 0 87.576c0 17.246 13.887 31.133 31.134 31.133h107.734c17.245 0 31.132-13.887 31.132-31.133-.224-15.23-11.422-27.998-25.981-30.461z" fill="#f1f2f3"/></g><g transform="translate(-100 1122.54)"><animateTransform attributeName="transform" type="translate" keyTimes="0;1" values="-100 1122.54010521399;2266 1122.54010521399" dur="50s" repeatCount="indefinite" begin="-68.91471133823197s"/><path d="M169.434 67.194c1.582-5.006 2.372-10.276 2.372-15.546 0-28.46-23.19-51.648-51.648-51.648-19.762 0-36.89 11.068-45.586 27.404-3.162-1.054-6.852-1.582-10.276-1.582-18.972 0-34.256 15.284-34.256 34.256 0 2.372.264 4.744.79 6.852C13.438 69.566 0 84.848 0 103.03c0 20.29 16.338 36.628 36.628 36.628h126.746c20.288 0 36.626-16.338 36.626-36.628-.264-17.918-13.438-32.938-30.566-35.836z" fill="#bddeff"/></g><g transform="translate(-100 266.57)"><animateTransform attributeName="transform" type="translate" keyTimes="0;1" values="-100 266.5704644835563;2266 266.5704644835563" dur="50s" repeatCount="indefinite" begin="-13.989148542963603s"/><path d="M169.434 67.194c1.582-5.006 2.372-10.276 2.372-15.546 0-28.46-23.19-51.648-51.648-51.648-19.762 0-36.89 11.068-45.586 27.404-3.162-1.054-6.852-1.582-10.276-1.582-18.972 0-34.256 15.284-34.256 34.256 0 2.372.264 4.744.79 6.852C13.438 69.566 0 84.848 0 103.03c0 20.29 16.338 36.628 36.628 36.628h126.746c20.288 0 36.626-16.338 36.626-36.628-.264-17.918-13.438-32.938-30.566-35.836z" fill="#bddeff"/></g><g transform="translate(-100 516.259)"><animateTransform attributeName="transform" type="translate" keyTimes="0;1" values="-100 516.258554434246;2266 516.258554434246" dur="50s" repeatCount="indefinite" begin="-124.07359873450892s"/><path d="M169.434 67.194c1.582-5.006 2.372-10.276 2.372-15.546 0-28.46-23.19-51.648-51.648-51.648-19.762 0-36.89 11.068-45.586 27.404-3.162-1.054-6.852-1.582-10.276-1.582-18.972 0-34.256 15.284-34.256 34.256 0 2.372.264 4.744.79 6.852C13.438 69.566 0 84.848 0 103.03c0 20.29 16.338 36.628 36.628 36.628h126.746c20.288 0 36.626-16.338 36.626-36.628-.264-17.918-13.438-32.938-30.566-35.836z" fill="#bddeff"/></g><g transform="translate(-100 151.618)"><animateTransform attributeName="transform" type="translate" keyTimes="0;1" values="-100 151.61814377366642;2266 151.61814377366642" dur="50s" repeatCount="indefinite" begin="-9.36446758867997s"/><path d="M169.434 67.194c1.582-5.006 2.372-10.276 2.372-15.546 0-28.46-23.19-51.648-51.648-51.648-19.762 0-36.89 11.068-45.586 27.404-3.162-1.054-6.852-1.582-10.276-1.582-18.972 0-34.256 15.284-34.256 34.256 0 2.372.264 4.744.79 6.852C13.438 69.566 0 84.848 0 103.03c0 20.29 16.338 36.628 36.628 36.628h126.746c20.288 0 36.626-16.338 36.626-36.628-.264-17.918-13.438-32.938-30.566-35.836z" fill="#bddeff"/></g><g transform="translate(-100 781.264)"><animateTransform attributeName="transform" type="translate" keyTimes="0;1" values="-100 781.2636699734421;2266 781.2636699734421" dur="50s" repeatCount="indefinite" begin="-26.096627069011234s"/><path d="M169.434 67.194c1.582-5.006 2.372-10.276 2.372-15.546 0-28.46-23.19-51.648-51.648-51.648-19.762 0-36.89 11.068-45.586 27.404-3.162-1.054-6.852-1.582-10.276-1.582-18.972 0-34.256 15.284-34.256 34.256 0 2.372.264 4.744.79 6.852C13.438 69.566 0 84.848 0 103.03c0 20.29 16.338 36.628 36.628 36.628h126.746c20.288 0 36.626-16.338 36.626-36.628-.264-17.918-13.438-32.938-30.566-35.836z" fill="#bddeff"/></g><g transform="translate(-100 629.584)"><animateTransform attributeName="transform" type="translate" keyTimes="0;1" values="-100 629.5837561156828;2266 629.5837561156828" dur="50s" repeatCount="indefinite" begin="-142.8559443038801s"/><path d="M169.434 67.194c1.582-5.006 2.372-10.276 2.372-15.546 0-28.46-23.19-51.648-51.648-51.648-19.762 0-36.89 11.068-45.586 27.404-3.162-1.054-6.852-1.582-10.276-1.582-18.972 0-34.256 15.284-34.256 34.256 0 2.372.264 4.744.79 6.852C13.438 69.566 0 84.848 0 103.03c0 20.29 16.338 36.628 36.628 36.628h126.746c20.288 0 36.626-16.338 36.626-36.628-.264-17.918-13.438-32.938-30.566-35.836z" fill="#bddeff"/></g><g transform="translate(-100 1140.963)"><animateTransform attributeName="transform" type="translate" keyTimes="0;1" values="-100 1140.9628397156625;2266 1140.9628397156625" dur="50s" repeatCount="indefinite" begin="-22.53359833547206s"/><path d="M169.434 67.194c1.582-5.006 2.372-10.276 2.372-15.546 0-28.46-23.19-51.648-51.648-51.648-19.762 0-36.89 11.068-45.586 27.404-3.162-1.054-6.852-1.582-10.276-1.582-18.972 0-34.256 15.284-34.256 34.256 0 2.372.264 4.744.79 6.852C13.438 69.566 0 84.848 0 103.03c0 20.29 16.338 36.628 36.628 36.628h126.746c20.288 0 36.626-16.338 36.626-36.628-.264-17.918-13.438-32.938-30.566-35.836z" fill="#bddeff"/></g><g transform="translate(-100 111.65)"><animateTransform attributeName="transform" type="translate" keyTimes="0;1" values="-100 111.6504399872461;2266 111.6504399872461" dur="50s" repeatCount="indefinite" begin="-144.7667104558397s"/><path d="M169.434 67.194c1.582-5.006 2.372-10.276 2.372-15.546 0-28.46-23.19-51.648-51.648-51.648-19.762 0-36.89 11.068-45.586 27.404-3.162-1.054-6.852-1.582-10.276-1.582-18.972 0-34.256 15.284-34.256 34.256 0 2.372.264 4.744.79 6.852C13.438 69.566 0 84.848 0 103.03c0 20.29 16.338 36.628 36.628 36.628h126.746c20.288 0 36.626-16.338 36.626-36.628-.264-17.918-13.438-32.938-30.566-35.836z" fill="#bddeff"/></g><g transform="translate(-100 1392.641)"><animateTransform attributeName="transform" type="translate" keyTimes="0;1" values="-100 1392.641165906319;2266 1392.641165906319" dur="50s" repeatCount="indefinite" begin="-97.88877074469826s"/><path d="M169.434 67.194c1.582-5.006 2.372-10.276 2.372-15.546 0-28.46-23.19-51.648-51.648-51.648-19.762 0-36.89 11.068-45.586 27.404-3.162-1.054-6.852-1.582-10.276-1.582-18.972 0-34.256 15.284-34.256 34.256 0 2.372.264 4.744.79 6.852C13.438 69.566 0 84.848 0 103.03c0 20.29 16.338 36.628 36.628 36.628h126.746c20.288 0 36.626-16.338 36.626-36.628-.264-17.918-13.438-32.938-30.566-35.836z" fill="#bddeff"/></g><g transform="translate(-100 752.032)"><animateTransform attributeName="transform" type="translate" keyTimes="0;1" values="-100 752.0315273965573;2266 752.0315273965573" dur="50s" repeatCount="indefinite" begin="-188.20269024759577s"/><path d="M169.434 67.194c1.582-5.006 2.372-10.276 2.372-15.546 0-28.46-23.19-51.648-51.648-51.648-19.762 0-36.89 11.068-45.586 27.404-3.162-1.054-6.852-1.582-10.276-1.582-18.972 0-34.256 15.284-34.256 34.256 0 2.372.264 4.744.79 6.852C13.438 69.566 0 84.848 0 103.03c0 20.29 16.338 36.628 36.628 36.628h126.746c20.288 0 36.626-16.338 36.626-36.628-.264-17.918-13.438-32.938-30.566-35.836z" fill="#bddeff"/></g><g transform="translate(-100 440.393)"><animateTransform attributeName="transform" type="translate" keyTimes="0;1" values="-100 440.39307497458384;2266 440.39307497458384" dur="50s" repeatCount="indefinite" begin="-107.83105307133276s"/><path d="M169.434 67.194c1.582-5.006 2.372-10.276 2.372-15.546 0-28.46-23.19-51.648-51.648-51.648-19.762 0-36.89 11.068-45.586 27.404-3.162-1.054-6.852-1.582-10.276-1.582-18.972 0-34.256 15.284-34.256 34.256 0 2.372.264 4.744.79 6.852C13.438 69.566 0 84.848 0 103.03c0 20.29 16.338 36.628 36.628 36.628h126.746c20.288 0 36.626-16.338 36.626-36.628-.264-17.918-13.438-32.938-30.566-35.836z" fill="#bddeff"/></g><g transform="translate(-100 932.56)"><animateTransform attributeName="transform" type="translate" keyTimes="0;1" values="-100 932.5607244294534;2266 932.5607244294534" dur="50s" repeatCount="indefinite" begin="-183.03038954075146s"/><path d="M169.434 67.194c1.582-5.006 2.372-10.276 2.372-15.546 0-28.46-23.19-51.648-51.648-51.648-19.762 0-36.89 11.068-45.586 27.404-3.162-1.054-6.852-1.582-10.276-1.582-18.972 0-34.256 15.284-34.256 34.256 0 2.372.264 4.744.79 6.852C13.438 69.566 0 84.848 0 103.03c0 20.29 16.338 36.628 36.628 36.628h126.746c20.288 0 36.626-16.338 36.626-36.628-.264-17.918-13.438-32.938-30.566-35.836z" fill="#bddeff"/></g><g transform="translate(-100 1645.228)"><animateTransform attributeName="transform" type="translate" keyTimes="0;1" values="-100 1645.2278792357235;2266 1645.2278792357235" dur="50s" repeatCount="indefinite" begin="-99.72439641490452s"/><path d="M169.434 67.194c1.582-5.006 2.372-10.276 2.372-15.546 0-28.46-23.19-51.648-51.648-51.648-19.762 0-36.89 11.068-45.586 27.404-3.162-1.054-6.852-1.582-10.276-1.582-18.972 0-34.256 15.284-34.256 34.256 0 2.372.264 4.744.79 6.852C13.438 69.566 0 84.848 0 103.03c0 20.29 16.338 36.628 36.628 36.628h126.746c20.288 0 36.626-16.338 36.626-36.628-.264-17.918-13.438-32.938-30.566-35.836z" fill="#bddeff"/></g></svg>