<svg width="54" height="54" fill="none" xmlns="http://www.w3.org/2000/svg"><path d="M29.316 50.577c13.206-1.464 22.725-13.357 21.26-26.563-1.463-13.207-13.355-22.725-26.56-21.261C10.808 4.217 1.29 16.11 2.753 29.316c1.463 13.207 13.356 22.725 26.561 21.26z" fill="#FFFF61"/><path d="M16.168 25.874a4.268 4.268 0 1 0-.94-8.485 4.268 4.268 0 0 0 .94 8.485zm21.997.037a4.268 4.268 0 1 0-.94-8.485 4.268 4.268 0 0 0 .94 8.485z" fill="#000"/><path fill-rule="evenodd" clip-rule="evenodd" d="M14.225 29.28a1.94 1.94 0 0 1 2.508 1.112 10.663 10.663 0 0 0 10.113 6.803c4.66-.072 8.539-2.947 10.084-6.855a1.94 1.94 0 0 1 3.608 1.427c-2.113 5.346-7.378 9.211-13.632 9.308-6.296.097-11.684-3.811-13.793-9.288a1.94 1.94 0 0 1 1.112-2.508z" fill="#000"/></svg>